<svg xmlns="http://www.w3.org/2000/svg" xmlns:xlink="http://www.w3.org/1999/xlink" width="61.915" height="65.999" viewBox="0 0 61.915 65.999">
  <defs>
    <filter id="Rectangle_3092" x="8.362" y="0" width="45.255" height="45.255" filterUnits="userSpaceOnUse">
      <feOffset dy="3" input="SourceAlpha"/>
      <feGaussianBlur stdDeviation="3" result="blur"/>
      <feFlood flood-opacity="0.078"/>
      <feComposite operator="in" in2="blur"/>
      <feComposite in="SourceGraphic"/>
    </filter>
  </defs>
  <g id="DC_Logo" data-name="DC Logo" transform="translate(0 21112)">
    <g id="Group_4563" data-name="Group 4563" transform="translate(17.362 -21106)">
      <g transform="matrix(1, 0, 0, 1, -17.36, -6)" filter="url(#Rectangle_3092)">
        <rect id="Rectangle_3092-2" data-name="Rectangle 3092" width="27.255" height="27.255" rx="8.5" transform="translate(17.36 6)" fill="#fff"/>
      </g>
      <path id="Path_4394" data-name="Path 4394" d="M40.355,17.229h.064a.424.424,0,0,0,.319-.255,5.285,5.285,0,0,1,1.723-2.681.316.316,0,1,0-.447-.447,6.081,6.081,0,0,0-1.915,3c0,.191,0,.383.255.383Z" transform="translate(-31.802 -4.973)" fill="#003137"/>
      <path id="Path_4395" data-name="Path 4395" d="M37.691,17.776l13.34-2.043a.281.281,0,0,0,.255-.383,2.336,2.336,0,0,0-.7-1.468,5.515,5.515,0,0,0-2.553-3.766A7.074,7.074,0,0,0,43.5,9.031V8.648l.638-.128c.064,0,.191,0,.191-.128,0-.064.064-.191,0-.255A1.319,1.319,0,0,0,42.8,6.989a1.287,1.287,0,0,0-.957.574,1.359,1.359,0,0,0-.191,1.021c0,.191.191.255.319.255h0l.7-.128V9.1a7.073,7.073,0,0,0-3.957,2.362,5.753,5.753,0,0,0-1.277,4.34,2.459,2.459,0,0,0-.255,1.6c0,.191.191.255.319.255h0ZM42.478,8.01a.663.663,0,0,1,.511-.255h.128a.571.571,0,0,1,.511.255L42.414,8.2a.315.315,0,0,1,.064-.191h0Zm-4.532,9.064a1.833,1.833,0,0,1,.128-.766l6.064-.957,6.064-.957c.128.064.255.255.383.7Zm1.4-5.106A6.144,6.144,0,0,1,43.244,9.8c.319,0,.7-.064,1.021-.064a6.309,6.309,0,0,1,3.383.957,5.248,5.248,0,0,1,2.234,3.128L38.2,15.606a5.179,5.179,0,0,1,1.149-3.638Z" transform="translate(-30.733 -2.521)" fill="#003137"/>
      <path id="Path_4396" data-name="Path 4396" d="M51.669,21.646a.281.281,0,0,0-.383-.255l-13.34,2.043a.281.281,0,0,0-.255.383c0,.191.191.255.319.255h0l4.149-.638-4.021,4.723c-.064.128-.128.255,0,.383l1.021,1.723c0,.128.191.191.319.191h.191a.423.423,0,0,0,.128-.447L38.9,28.476l4.34-5.106,1.787-.255,3.894,7.213c0,.128.191.191.319.191h.128l1.532-.7a.329.329,0,1,0-.319-.574l-1.213.574L45.733,23.05l5.617-.894a.281.281,0,0,0,.255-.383h0Z" transform="translate(-30.925 -7.731)" fill="#003137"/>
    </g>
    <path id="Path_4397" data-name="Path 4397" d="M19.1,63.747V54.3h3.064a5.211,5.211,0,0,1,2.681.638,3.942,3.942,0,0,1,1.723,1.66,5.079,5.079,0,0,1,.638,2.426,4.449,4.449,0,0,1-.638,2.426,4.313,4.313,0,0,1-1.723,1.66,5.934,5.934,0,0,1-2.681.638Zm1.979-1.723h1.149a3.109,3.109,0,0,0,1.6-.383,2.618,2.618,0,0,0,1.021-1.021,3.516,3.516,0,0,0,0-3.191,2.618,2.618,0,0,0-1.021-1.021,3.109,3.109,0,0,0-1.6-.383H21.079v6Z" transform="translate(-6.845 -21125.465)" fill="#043137"/>
    <path id="Path_4398" data-name="Path 4398" d="M33.1,56.215V54.3h1.915v1.915Zm0,7.532V56.789h1.915v6.957Z" transform="translate(-11.909 -21125.465)" fill="#043137"/>
    <path id="Path_4399" data-name="Path 4399" d="M41.138,67.821a3.745,3.745,0,0,1-1.468-.255,3.622,3.622,0,0,1-1.149-.766,2.671,2.671,0,0,1-.7-1.149l1.723-.638a1.139,1.139,0,0,0,.574.766,1.74,1.74,0,0,0,1.021.255,1.158,1.158,0,0,0,.83-.191,1,1,0,0,0,.511-.511,1.361,1.361,0,0,0,.191-.766v-1.6l.383.447a2.4,2.4,0,0,1-.894.894,2.858,2.858,0,0,1-1.277.255,3.326,3.326,0,0,1-2.936-1.66,3.835,3.835,0,0,1-.447-1.723,3.162,3.162,0,0,1,.447-1.723A3.487,3.487,0,0,1,39.1,58.247a3.162,3.162,0,0,1,1.723-.447,2.2,2.2,0,0,1,1.277.319,2.559,2.559,0,0,1,.957.894l-.255.447V57.928h1.787V64.5a2.947,2.947,0,0,1-.447,1.66,4.186,4.186,0,0,1-1.213,1.149,3.886,3.886,0,0,1-1.787.383h0Zm-.064-4.851a1.767,1.767,0,0,0,.83-.191,1.252,1.252,0,0,0,.574-.574,2.181,2.181,0,0,0,0-1.787,1.252,1.252,0,0,0-.574-.574,1.894,1.894,0,0,0-1.66,0,1.252,1.252,0,0,0-.574.574,1.854,1.854,0,0,0-.191.894,1.6,1.6,0,0,0,.191.83,1.252,1.252,0,0,0,.574.574,1.767,1.767,0,0,0,.83.191Z" transform="translate(-13.5 -21126.717)" fill="#043137"/>
    <path id="Path_4400" data-name="Path 4400" d="M50.3,56.215V54.3h1.915v1.915Zm0,7.532V56.789h1.915v6.957Z" transform="translate(-18.13 -21125.465)" fill="#043137"/>
    <path id="Path_4401" data-name="Path 4401" d="M58.466,64.281a2.425,2.425,0,0,1-2.617-2.617V58.855H54.7V57.2h0a.928.928,0,0,0,1.085-1.085V55.6H57.7v1.6h1.6v1.66H57.7v2.681c0,.255,0,.447.128.574a.654.654,0,0,0,.383.319,1.888,1.888,0,0,0,.638.128H59.3v1.6H58.4Z" transform="translate(-19.721 -21125.934)" fill="#043137"/>
    <path id="Path_4402" data-name="Path 4402" d="M65.726,65.313a2.531,2.531,0,0,1-1.277-.255,1.819,1.819,0,0,1-.83-.7A1.978,1.978,0,0,1,63.3,63.27a1.74,1.74,0,0,1,.255-1.021,1.94,1.94,0,0,1,.83-.766,6.594,6.594,0,0,1,1.34-.447l2.106-.319v1.4l-1.787.319a1.134,1.134,0,0,0-.638.255.725.725,0,0,0-.191.511.581.581,0,0,0,.255.511,1.03,1.03,0,0,0,.574.191,2.2,2.2,0,0,0,.83-.191,1.252,1.252,0,0,0,.574-.574,1.7,1.7,0,0,0,.191-.766V60.589a.786.786,0,0,0-.319-.638,1.177,1.177,0,0,0-.83-.255,1.465,1.465,0,0,0-.894.255,1.743,1.743,0,0,0-.574.766l-1.532-.7a2.5,2.5,0,0,1,.638-1.021,3.054,3.054,0,0,1,1.085-.638,4.542,4.542,0,0,1,1.34-.255,4.388,4.388,0,0,1,1.532.319,2.322,2.322,0,0,1,1.021.894,2.36,2.36,0,0,1,.383,1.34v4.6H67.7V64.164h.447a6.988,6.988,0,0,1-.638.7,3.439,3.439,0,0,1-.83.447,2.646,2.646,0,0,1-1.021.128h0Z" transform="translate(-22.832 -21126.834)" fill="#043137"/>
    <path id="Path_4403" data-name="Path 4403" d="M74.9,63.674V54.1h1.915v9.574Z" transform="translate(-27.028 -21125.391)" fill="#043137"/>
    <path id="Path_4404" data-name="Path 4404" d="M4.687,83.866a4.365,4.365,0,0,1-1.851-.383A4.953,4.953,0,0,1,1.3,82.462,4.953,4.953,0,0,1,.283,80.93,4.664,4.664,0,0,1-.1,79.015a5.2,5.2,0,0,1,.383-1.979A4.953,4.953,0,0,1,1.3,75.5a4.953,4.953,0,0,1,1.532-1.021A4.664,4.664,0,0,1,4.751,74.1a5.622,5.622,0,0,1,1.851.319,4.419,4.419,0,0,1,1.4.894,3.99,3.99,0,0,1,.83,1.277l-1.723.83a2.954,2.954,0,0,0-.83-1.149,2.238,2.238,0,0,0-1.468-.447,2.8,2.8,0,0,0-1.468.383,2.253,2.253,0,0,0-.957,1.085,3.253,3.253,0,0,0-.319,1.6,4.181,4.181,0,0,0,.319,1.6,3.177,3.177,0,0,0,.957,1.085,2.8,2.8,0,0,0,1.468.383A2.238,2.238,0,0,0,6.283,81.5a2.428,2.428,0,0,0,.83-1.149l1.723.83a3.99,3.99,0,0,1-.83,1.277,3.541,3.541,0,0,1-1.4.894,4.35,4.35,0,0,1-1.851.319h0Z" transform="translate(0.1 -21132.547)" fill="#043137"/>
    <path id="Path_4405" data-name="Path 4405" d="M18.2,85.349a3.615,3.615,0,0,1-1.851-.447A3.531,3.531,0,0,1,14.5,81.774a3.49,3.49,0,0,1,.511-1.851,3.686,3.686,0,0,1,1.34-1.277A3.615,3.615,0,0,1,18.2,78.2a3.615,3.615,0,0,1,1.851.447,3.686,3.686,0,0,1,1.34,1.277,3.61,3.61,0,0,1,0,3.7,3.232,3.232,0,0,1-1.34,1.277A3.615,3.615,0,0,1,18.2,85.349Zm0-1.723a1.465,1.465,0,0,0,.894-.255,1.56,1.56,0,0,0,.574-.7,2.646,2.646,0,0,0,.191-1.021,2.132,2.132,0,0,0-.191-.957,2,2,0,0,0-.574-.7,1.691,1.691,0,0,0-1.787,0,2.276,2.276,0,0,0-.638.7,2.332,2.332,0,0,0-.191.957,2.891,2.891,0,0,0,.191,1.021,1.361,1.361,0,0,0,.638.7A1.465,1.465,0,0,0,18.2,83.626Z" transform="translate(-5.181 -21134.029)" fill="#043137"/>
    <path id="Path_4406" data-name="Path 4406" d="M27.4,85.149V78.191h1.787v1.34l-.128-.319a1.76,1.76,0,0,1,.766-.894A2.514,2.514,0,0,1,31.1,78a2.967,2.967,0,0,1,1.34.319,2.017,2.017,0,0,1,.894.894,3.043,3.043,0,0,1,.319,1.4v4.468H31.74V81.064a1.263,1.263,0,0,0-.128-.7,1.491,1.491,0,0,0-.447-.447,1.078,1.078,0,0,0-.638-.191.772.772,0,0,0-.638.191,1.491,1.491,0,0,0-.447.447,1.263,1.263,0,0,0-.128.7v4.021H27.4Z" transform="translate(-9.847 -21133.957)" fill="#043137"/>
    <path id="Path_4407" data-name="Path 4407" d="M42,85.349a3.463,3.463,0,0,1-1.851-.447,4.269,4.269,0,0,1-1.34-1.277,3.661,3.661,0,0,1-.511-1.851,3.124,3.124,0,0,1,.511-1.851,3.232,3.232,0,0,1,1.34-1.277A3.615,3.615,0,0,1,42,78.2a2.908,2.908,0,0,1,1.4.255,3.622,3.622,0,0,1,1.149.766,2.553,2.553,0,0,1,.638,1.149l-1.66.7a1.944,1.944,0,0,0-.574-.83A1.72,1.72,0,0,0,42,79.923a1.465,1.465,0,0,0-.894.255,1.56,1.56,0,0,0-.574.7,2.646,2.646,0,0,0-.191,1.021,2.132,2.132,0,0,0,.191.957,1.56,1.56,0,0,0,.574.7,1.465,1.465,0,0,0,.894.255,1.72,1.72,0,0,0,.957-.319,1.621,1.621,0,0,0,.574-.83l1.66.7a2.711,2.711,0,0,1-.638,1.085,3.622,3.622,0,0,1-1.149.766,3.547,3.547,0,0,1-1.468.255h0Z" transform="translate(-13.789 -21134.029)" fill="#043137"/>
    <path id="Path_4408" data-name="Path 4408" d="M50.5,76.315V74.4h1.915v1.915Zm0,7.532V76.889h1.915v6.957Z" transform="translate(-18.202 -21132.654)" fill="#043137"/>
    <path id="Path_4409" data-name="Path 4409" d="M58.438,85.277a3.9,3.9,0,0,1-1.915-.511,3.686,3.686,0,0,1-1.277-1.34,3.615,3.615,0,0,1-.447-1.851,3.463,3.463,0,0,1,.447-1.851,3.868,3.868,0,0,1,1.213-1.277A3.238,3.238,0,0,1,58.247,78a3.191,3.191,0,0,1,1.468.255,4.544,4.544,0,0,1,1.085.7,2.711,2.711,0,0,1,.638,1.085,4.173,4.173,0,0,1,.255,1.34v.383a.478.478,0,0,1-.064.319H56.46v-1.4h4.085l-.894.638a2.394,2.394,0,0,0,0-.957,1.338,1.338,0,0,0-.511-.7,1.283,1.283,0,0,0-.83-.255,1.177,1.177,0,0,0-.83.255,1.442,1.442,0,0,0-.511.7,2.208,2.208,0,0,0-.128,1.149,2.646,2.646,0,0,0,.128,1.021,1.56,1.56,0,0,0,.574.7,1.538,1.538,0,0,0,.957.255A1.854,1.854,0,0,0,59.4,83.3a1.252,1.252,0,0,0,.574-.574l1.532.7a2.117,2.117,0,0,1-.638.894,3.237,3.237,0,0,1-1.021.574,4.116,4.116,0,0,1-1.277.191h0Z" transform="translate(-19.757 -21133.957)" fill="#043137"/>
    <path id="Path_4410" data-name="Path 4410" d="M66.864,85.185V78.228h1.787v1.66l-.128-.255a1.84,1.84,0,0,1,.766-1.213A2.444,2.444,0,0,1,70.5,78.1h.383v1.66h-.574a1.538,1.538,0,0,0-1.149.447,1.748,1.748,0,0,0-.447,1.213v3.7H66.8Z" transform="translate(-24.098 -21133.994)" fill="#043137"/>
    <path id="Path_4411" data-name="Path 4411" d="M77.438,87.921a3.745,3.745,0,0,1-1.468-.255,3.622,3.622,0,0,1-1.149-.766,2.671,2.671,0,0,1-.7-1.149l1.723-.638a1.139,1.139,0,0,0,.574.766,1.74,1.74,0,0,0,1.021.255,1.158,1.158,0,0,0,.83-.191,1,1,0,0,0,.511-.511,1.361,1.361,0,0,0,.191-.766v-1.6l.383.447a2.4,2.4,0,0,1-.894.894,2.858,2.858,0,0,1-1.277.255,3.326,3.326,0,0,1-2.936-1.66,3.834,3.834,0,0,1-.447-1.723,3.162,3.162,0,0,1,.447-1.723A3.487,3.487,0,0,1,75.4,78.347a3.162,3.162,0,0,1,1.723-.447,2.2,2.2,0,0,1,1.277.319,2.559,2.559,0,0,1,.957.894l-.255.447V78.028h1.787V84.6a2.948,2.948,0,0,1-.447,1.66,4.186,4.186,0,0,1-1.213,1.149,3.886,3.886,0,0,1-1.787.383h0Zm-.064-4.915a1.767,1.767,0,0,0,.83-.191,1.252,1.252,0,0,0,.574-.574,2.181,2.181,0,0,0,0-1.787,1.253,1.253,0,0,0-.574-.574,1.894,1.894,0,0,0-1.66,0,1.252,1.252,0,0,0-.574.574,1.854,1.854,0,0,0-.191.894,1.6,1.6,0,0,0,.191.83,1.252,1.252,0,0,0,.574.574,1.767,1.767,0,0,0,.83.191h0Z" transform="translate(-26.63 -21133.922)" fill="#043137"/>
    <path id="Path_4412" data-name="Path 4412" d="M89.738,85.277a3.9,3.9,0,0,1-1.915-.511,3.686,3.686,0,0,1-1.277-1.34,3.615,3.615,0,0,1-.447-1.851,3.463,3.463,0,0,1,.447-1.851,3.868,3.868,0,0,1,1.213-1.277A3.238,3.238,0,0,1,89.547,78a3.191,3.191,0,0,1,1.468.255,4.544,4.544,0,0,1,1.085.7,2.712,2.712,0,0,1,.638,1.085,4.173,4.173,0,0,1,.255,1.34v.383a.478.478,0,0,1-.064.319H87.76v-1.4h4.085l-.894.638a2.394,2.394,0,0,0,0-.957,1.338,1.338,0,0,0-.511-.7,1.283,1.283,0,0,0-.83-.255,1.177,1.177,0,0,0-.83.255,1.441,1.441,0,0,0-.511.7,2.207,2.207,0,0,0-.128,1.149,2.646,2.646,0,0,0,.128,1.021,1.56,1.56,0,0,0,.574.7,1.538,1.538,0,0,0,.957.255A1.854,1.854,0,0,0,90.7,83.3a1.252,1.252,0,0,0,.574-.574l1.532.7a2.117,2.117,0,0,1-.638.894,3.237,3.237,0,0,1-1.021.574,4.116,4.116,0,0,1-1.277.191h0Z" transform="translate(-31.079 -21133.957)" fill="#043137"/>
  </g>
</svg>
