<svg id="LogoMaker_Logo_SVG" data-name="LogoMaker Logo SVG" xmlns="http://www.w3.org/2000/svg" xmlns:xlink="http://www.w3.org/1999/xlink" width="210" height="33" viewBox="0 0 210 33">
  <defs>
    <clipPath id="clip-path">
      <rect id="Rectangle_3094" data-name="Rectangle 3094" width="210" height="33" fill="none"/>
    </clipPath>
  </defs>
  <g id="Group_4584" data-name="Group 4584" clip-path="url(#clip-path)">
    <path id="Path_4416" data-name="Path 4416" d="M231.6,30.707l-3.989-5.787c-.007-.011-.014-.022-.021-.033a.4.4,0,0,1,.155-.538,7.292,7.292,0,0,0,2.752-2.528,7.5,7.5,0,0,0,1.1-4.085,7.307,7.307,0,0,0-4.52-7.012,12.4,12.4,0,0,0-5.108-.971H191.573a.4.4,0,0,0-.293.127l-7.579,8.1a.4.4,0,0,1-.693-.271V10.15a.4.4,0,0,0-.4-.4h-5.269a.4.4,0,0,0-.4.4V23.739L170.823,9.989a.4.4,0,0,0-.366-.239h-5.516a.4.4,0,0,0-.366.239l-5.682,12.817-.037-12.658a.4.4,0,0,0-.4-.4h-4.42a.4.4,0,0,0-.344.195l-6.974,11.691a.4.4,0,0,1-.685,0l-7.154-11.7a.4.4,0,0,0-.341-.19h-4.423a.4.4,0,0,0-.4.4v2.278a10.876,10.876,0,0,0-17.777,5.894h-6.579a2.262,2.262,0,1,0,0,4.523h5.916a6.331,6.331,0,1,1-5.916-8.571h4.3a2.262,2.262,0,1,0,0-4.524h-4.3a10.873,10.873,0,0,0-8.609,4.234,10.877,10.877,0,0,0-19.489,6.6,10.731,10.731,0,0,0,2.053,6.31H75.881a6.331,6.331,0,0,1-6.337-6.31V12.012a2.272,2.272,0,0,0-4.544,0v8.571A10.869,10.869,0,0,0,75.881,31.417H92.142a10.874,10.874,0,0,0,8.609-4.233,10.87,10.87,0,0,0,17.217,0,10.864,10.864,0,0,0,15.747,1.556v2.193a.4.4,0,0,0,.4.4h4.865a.4.4,0,0,0,.4-.4V21.613a.4.4,0,0,1,.741-.208l4.685,7.608a.4.4,0,0,0,.341.19h2.273a.4.4,0,0,0,.343-.194l4.721-7.887a.4.4,0,0,1,.743.2l.052,9.61a.4.4,0,0,0,.4.395H161.1a.4.4,0,0,0,.371-.249l1.5-3.695a.4.4,0,0,1,.37-.249h8.625a.4.4,0,0,1,.371.249l1.5,3.695a.4.4,0,0,0,.37.249h8.4a.4.4,0,0,0,.4-.4V26.092a.4.4,0,0,1,.108-.272l1.865-1.983h0a.433.433,0,0,1,.045-.041.4.4,0,0,1,.561.067l5.785,7.313a.4.4,0,0,0,.314.151l26.1,0a.4.4,0,0,0,.4-.4V26a.4.4,0,0,1,.4-.4h2.733a.4.4,0,0,1,.33.173l3.693,5.387a.4.4,0,0,0,.329.173h5.594a.4.4,0,0,0,.329-.623M92.142,26.893a6.31,6.31,0,1,1,6.337-6.31,6.331,6.331,0,0,1-6.337,6.31m34.435,0a6.31,6.31,0,1,1,6.337-6.31,6.331,6.331,0,0,1-6.337,6.31m43.271-4.255h-4.389a.4.4,0,0,1-.371-.548l2.195-5.439a.4.4,0,0,1,.741,0l2.2,5.439h0a.4.4,0,0,1-.371.548M196.576,28.7,189.5,19.573a.4.4,0,0,1,.023-.513l7.055-7.612Zm15.483-2.091h-9.015a.4.4,0,0,1-.4-.4V23.066h0a.4.4,0,0,1,.4-.4h5.913a.4.4,0,0,0,.4-.4V18.5a.4.4,0,0,0-.4-.4h-5.913a.4.4,0,0,1-.4-.4V14.866a.4.4,0,0,1,.4-.4h9.015Zm12.384-6.551a4.3,4.3,0,0,1-2.849.817h-3.006a.4.4,0,0,1-.4-.4V14.958a.4.4,0,0,1,.4-.4h3.006a4.248,4.248,0,0,1,2.849.833,2.937,2.937,0,0,1,.959,2.342,2.89,2.89,0,0,1-.959,2.327" transform="translate(-21.667 -3.25)" fill="#fff"/>
    <path id="Path_4417" data-name="Path 4417" d="M18.693,39.588H10.436A10.435,10.435,0,0,1,0,29.177V20.939a2.179,2.179,0,0,1,4.358,0v8.238a6.078,6.078,0,0,0,6.078,6.063h8.257a2.174,2.174,0,1,1,0,4.348" transform="translate(0 -6.255)" fill="#fff"/>
    <path id="Path_4418" data-name="Path 4418" d="M33.372,33.333H25.29a2.184,2.184,0,0,1,0-4.368h3.723V10.46a6.091,6.091,0,0,0-6.078-6.092H4.472V8.273a2.179,2.179,0,1,1-4.357,0V0H22.936A10.459,10.459,0,0,1,33.372,10.46Z" transform="translate(-0.038)" fill="#fff"/>
    <path id="Path_4419" data-name="Path 4419" d="M25.439,28.282,25.4,21.972a.262.262,0,0,0-.265-.26.265.265,0,0,0-.227.127l-3.122,5.178a.265.265,0,0,1-.227.127h-1.5a.265.265,0,0,1-.225-.125l-3.1-5a.266.266,0,0,0-.363-.086.261.261,0,0,0-.126.223V28.28a.263.263,0,0,1-.265.261H12.765a.263.263,0,0,1-.265-.261V14.636a.263.263,0,0,1,.265-.261h2.925a.265.265,0,0,1,.226.125l4.731,7.679a.265.265,0,0,0,.453,0L25.712,14.5a.265.265,0,0,1,.227-.128h2.923a.263.263,0,0,1,.265.261l.039,13.644a.263.263,0,0,1-.263.262H25.7a.263.263,0,0,1-.265-.26" transform="translate(-4.167 -4.792)" fill="#fff"/>
  </g>
</svg>
