<svg width="52" height="33" viewBox="0 0 52 33" fill="none" xmlns="http://www.w3.org/2000/svg">
<rect width="52" height="33" rx="5" fill="white"/>
<path d="M14.7739 11.963C14.554 12.2341 14.2759 12.4521 13.9602 12.6009C13.6445 12.7497 13.2993 12.8255 12.9503 12.8225C12.9098 12.1305 13.1435 11.4503 13.6008 10.9292C14.0623 10.3973 14.7115 10.0644 15.4128 10C15.4405 10.3531 15.3984 10.7083 15.2888 11.0451C15.1791 11.3819 15.0042 11.6938 14.7739 11.963ZM15.4128 12.9619C14.4022 12.9038 13.5427 13.5311 13.0897 13.5311C12.6367 13.5311 11.9282 12.9968 11.0686 13.0084C10.546 13.0188 10.0351 13.1659 9.58684 13.4348C9.13857 13.7038 8.76845 14.0853 8.51325 14.5416C7.43302 16.4117 8.23448 19.1877 9.29148 20.7093C9.80255 21.4527 10.453 22.289 11.2312 22.2542C12.0095 22.2193 12.2998 21.7547 13.2291 21.7547C14.1583 21.7547 14.3906 22.2542 15.2385 22.2426C16.0864 22.231 16.6091 21.4876 17.1318 20.7326C17.4927 20.1991 17.7744 19.6161 17.9681 19.0019C17.483 18.7918 17.0696 18.4447 16.7787 18.0032C16.4878 17.5617 16.332 17.0449 16.3304 16.5162C16.3387 16.049 16.4644 15.5915 16.6957 15.1855C16.9271 14.7796 17.2568 14.4384 17.6545 14.1931C17.3984 13.8325 17.0633 13.5352 16.6748 13.3239C16.2863 13.1125 15.8546 12.9927 15.4128 12.9735M21.2204 10.8712V22.1961H23.0324V18.2934H25.46C25.9581 18.3213 26.4566 18.2448 26.9234 18.0686C27.3902 17.8925 27.8149 17.6207 28.1704 17.2707C28.5259 16.9206 28.8043 16.5001 28.9876 16.0361C29.171 15.5721 29.2552 15.0749 29.235 14.5764C29.2582 14.0822 29.1779 13.5885 28.9993 13.1271C28.8207 12.6656 28.5478 12.2465 28.1979 11.8967C27.848 11.5468 27.4289 11.2738 26.9675 11.0952C26.506 10.9166 26.0124 10.8364 25.5181 10.8595L21.2204 10.8712ZM23.0324 12.3463H25.007C25.3175 12.3022 25.634 12.3281 25.9331 12.4222C26.2323 12.5162 26.5067 12.676 26.7361 12.8898C26.9655 13.1037 27.1442 13.3661 27.259 13.6579C27.3739 13.9498 27.422 14.2636 27.3998 14.5764C27.4216 14.8912 27.373 15.2068 27.2577 15.5005C27.1423 15.7942 26.963 16.0584 26.7328 16.2742C26.5026 16.4899 26.2272 16.6517 25.9267 16.7478C25.6262 16.8439 25.3081 16.8719 24.9954 16.8298H23.0324V12.3463ZM32.3944 22.1961C32.9137 22.2086 33.4269 22.0816 33.8805 21.8283C34.334 21.575 34.7113 21.2046 34.973 20.7558V22.1961H36.5991V16.5394C36.5991 14.9017 35.2982 13.8563 33.2888 13.8563C31.2793 13.8563 30.0829 14.9249 30.0016 16.3884H31.5813C31.6717 16.0271 31.8895 15.7106 32.1947 15.4972C32.4999 15.2838 32.8719 15.1878 33.2423 15.2269C34.3109 15.2269 34.9149 15.738 34.9149 16.6556V17.2712L32.7196 17.4106C30.6869 17.5267 29.5835 18.363 29.5835 19.815C29.5951 20.1618 29.6791 20.5023 29.8303 20.8147C29.9814 21.1271 30.1963 21.4043 30.4611 21.6286C30.7259 21.8529 31.0347 22.0193 31.3677 22.117C31.7006 22.2148 32.0504 22.2417 32.3944 22.1961ZM32.859 20.8603C31.9298 20.8603 31.3374 20.4073 31.3374 19.6988C31.3374 18.9903 31.9065 18.5373 32.9984 18.5373L34.9498 18.4095V19.0483C34.9446 19.311 34.8852 19.5698 34.7752 19.8084C34.6652 20.047 34.5071 20.2602 34.3108 20.4348C34.1144 20.6093 33.8841 20.7413 33.6342 20.8226C33.3844 20.9038 33.1205 20.9325 32.859 20.9068V20.8603ZM38.806 25.1812C40.5135 25.1812 41.315 24.5308 42.0235 22.5562L45.1016 13.9608H43.3244L41.2569 20.6396L39.1894 13.9608H37.3193L40.2928 22.1961L40.1302 22.6956C40.0708 23.037 39.8873 23.3444 39.615 23.5588C39.3428 23.7732 39.0009 23.8794 38.6551 23.8571H38.1324V25.2161C38.3565 25.2321 38.5814 25.236 38.806 25.2277V25.1812Z" fill="black"/>
</svg>
