<svg width="25" height="22" viewBox="0 0 25 22" fill="none" xmlns="http://www.w3.org/2000/svg">
<path d="M4.60581 0.799805C5.12039 0.826885 5.44539 1.09772 5.58081 1.6123L5.62143 2.0998H22.7245C23.1579 2.12688 23.4965 2.30293 23.7402 2.62793C23.984 2.95293 24.0652 3.33209 23.984 3.76543L21.7902 11.5654C21.5735 12.1612 21.1537 12.4727 20.5308 12.4998H7.65268L8.01831 14.4498H20.5308C21.1266 14.504 21.4517 14.829 21.5058 15.4248C21.4517 16.0206 21.1266 16.3456 20.5308 16.3998H7.16519C6.67768 16.3727 6.36623 16.1154 6.23081 15.628L3.79331 2.7498H1.68081C1.08498 2.69564 0.759977 2.37064 0.705811 1.7748C0.759977 1.17897 1.08498 0.853973 1.68081 0.799805H4.60581ZM20.0433 10.5498L21.8714 4.0498H6.02768L7.28706 10.5498H20.0433ZM5.90581 19.6498C5.93289 19.1081 6.12247 18.6477 6.47456 18.2685C6.85373 17.9164 7.31415 17.7269 7.85581 17.6998C8.39747 17.7269 8.85789 17.9164 9.23709 18.2685C9.58917 18.6477 9.77869 19.1081 9.80581 19.6498C9.77869 20.1915 9.58917 20.6519 9.23709 21.0311C8.85789 21.3832 8.39747 21.5727 7.85581 21.5998C7.31415 21.5727 6.85373 21.3832 6.47456 21.0311C6.12247 20.6519 5.93289 20.1915 5.90581 19.6498ZM21.5058 19.6498C21.4787 20.1915 21.2892 20.6519 20.9371 21.0311C20.5579 21.3832 20.0975 21.5727 19.5558 21.5998C19.0141 21.5727 18.5537 21.3832 18.1745 21.0311C17.8225 20.6519 17.6329 20.1915 17.6058 19.6498C17.6329 19.1081 17.8225 18.6477 18.1745 18.2685C18.5537 17.9164 19.0141 17.7269 19.5558 17.6998C20.0975 17.7269 20.5579 17.9164 20.9371 18.2685C21.2892 18.6477 21.4787 19.1081 21.5058 19.6498Z" fill="#121212"/>
</svg>
