<svg width="52" height="33" viewBox="0 0 52 33" fill="none" xmlns="http://www.w3.org/2000/svg">
<rect width="52" height="33" rx="5" fill="white"/>
<path d="M23.5065 15.8579V20.5225H22V9.00084H25.9935C26.4703 8.99062 26.9445 9.07352 27.3885 9.24474C27.8325 9.41596 28.2375 9.67211 28.5801 9.99832C29.281 10.6183 29.6748 11.505 29.6601 12.4302C29.6704 12.8904 29.5792 13.3474 29.3928 13.7697C29.2063 14.192 28.9291 14.5696 28.5801 14.8765C27.8807 15.5319 27.018 15.8595 25.9935 15.8579H23.5065ZM23.5065 10.4192V14.4428H26.031C26.5915 14.4589 27.1307 14.2436 27.5212 13.8469C28.3121 13.092 28.3317 11.8471 27.5605 11.0697L27.5212 11.0311C27.331 10.8313 27.0999 10.6734 26.843 10.5679C26.5861 10.4624 26.3093 10.4117 26.031 10.4192H23.5065ZM33.1307 12.382C34.2451 12.382 35.1226 12.6743 35.7663 13.259C36.4101 13.8437 36.732 14.6468 36.732 15.6636V20.5241H35.2925V19.4286H35.2271C34.6029 20.3297 33.7729 20.7811 32.7386 20.7811C31.8546 20.7811 31.116 20.5241 30.5212 20.0085C30.2361 19.7719 30.008 19.476 29.8537 19.142C29.6994 18.808 29.6227 18.4445 29.6291 18.0778C29.6291 17.2618 29.9428 16.6129 30.5703 16.131C31.1977 15.6491 32.0343 15.4066 33.0833 15.4066C33.9771 15.4066 34.7141 15.5672 35.2925 15.8884V15.5495C35.2943 15.2995 35.2394 15.0523 35.1317 14.8258C35.024 14.5993 34.8662 14.3994 34.6699 14.2404C34.2716 13.8869 33.7523 13.6942 33.2157 13.7007C32.3758 13.7007 31.7092 14.0493 31.219 14.7464L29.8938 13.9256C30.6209 12.896 31.701 12.382 33.1307 12.382ZM31.1814 18.1099C31.1806 18.2981 31.2254 18.4838 31.3121 18.6517C31.3987 18.8195 31.5248 18.9647 31.6797 19.0752C32.0131 19.3322 32.4265 19.4704 32.8497 19.4607C33.4854 19.4592 34.0946 19.2103 34.5441 18.7684C35.0425 18.3058 35.2925 17.7661 35.2925 17.1429C34.8219 16.7751 34.1683 16.5904 33.3284 16.5904C32.7173 16.5904 32.2059 16.7349 31.7974 17.0257C31.3873 17.3228 31.1814 17.681 31.1814 18.1099ZM45 12.639L39.9722 24H38.4183L40.2843 20.0245L36.9755 12.639H38.6127L41.0033 18.3026H41.0359L43.3611 12.639H45Z" fill="#5F6368"/>
<path d="M19 16.2992C19 15.8636 18.9651 15.4295 18.8924 15H13V17.4605H16.3744C16.3056 17.8535 16.1595 18.2281 15.9451 18.5617C15.7306 18.8953 15.4523 19.181 15.1268 19.4016V21H17.1415C18.3209 19.8899 19 18.245 19 16.2992Z" fill="#4285F4"/>
<path d="M12.7406 23C14.4743 23 15.9351 22.4524 17 21.5074L14.928 19.9607C14.3511 20.3372 13.609 20.5518 12.7406 20.5518C11.0645 20.5518 9.64266 19.4641 9.13283 18H7V19.5932C7.53453 20.6173 8.35445 21.4783 9.36818 22.0799C10.3819 22.6815 11.5495 23.0001 12.7406 23Z" fill="#34A853"/>
<path d="M9 17.2771C8.71292 16.4477 8.71292 15.5491 9 14.7196V13H6.7281C6.24933 13.9309 6 14.9583 6 16C6 17.0418 6.24933 18.0691 6.7281 19L9 17.2771Z" fill="#FBBC04"/>
<path d="M12.7174 12.4484C13.6299 12.4343 14.5116 12.7673 15.1724 13.3755L17 11.6114C15.841 10.5609 14.3066 9.98371 12.7174 10.0004C11.5312 10.0003 10.3683 10.3188 9.35862 10.9204C8.34898 11.522 7.53237 12.3829 7 13.407L9.12578 15C9.63199 13.5345 11.0481 12.4484 12.7174 12.4484Z" fill="#EA4335"/>
</svg>
