<svg width="53" height="53" viewBox="0 0 53 53" fill="none" xmlns="http://www.w3.org/2000/svg">
<path d="M31.1277 9.02274C30.0946 5.16583 30.2192 0 30.2192 0C30.2192 0 35.8572 2.12489 37.4419 5.29427C35.0494 5.96836 32.8734 7.25326 31.1277 9.02274ZM51.9762 9.02274C50.2305 7.25326 48.0545 5.96836 45.6619 5.29427C47.2466 2.12489 52.8847 0 52.8847 0C52.8847 0 53.0093 5.16583 51.9762 9.02274ZM41.5519 7.55515C35.2925 7.55515 30.2192 12.2053 30.2192 17.9435C30.2192 23.6816 35.2925 28.3318 41.5519 28.3318C47.8114 28.3318 52.8847 23.6816 52.8847 17.9435C52.8847 12.2053 47.8114 7.55515 41.5519 7.55515ZM37.7744 18.8879C37.2734 18.8879 36.793 18.6889 36.4388 18.3347C36.0846 17.9804 35.8856 17.5 35.8856 16.9991C35.8856 16.4982 36.0846 16.0177 36.4388 15.6635C36.793 15.3093 37.2734 15.1103 37.7744 15.1103C38.2753 15.1103 38.7557 15.3093 39.1099 15.6635C39.4642 16.0177 39.6632 16.4982 39.6632 16.9991C39.6632 17.5 39.4642 17.9804 39.1099 18.3347C38.7557 18.6889 38.2753 18.8879 37.7744 18.8879ZM45.3295 18.8879C44.8286 18.8879 44.3482 18.6889 43.9939 18.3347C43.6397 17.9804 43.4407 17.5 43.4407 16.9991C43.4407 16.4982 43.6397 16.0177 43.9939 15.6635C44.3482 15.3093 44.8286 15.1103 45.3295 15.1103C45.8305 15.1103 46.3109 15.3093 46.6651 15.6635C47.0193 16.0177 47.2183 16.4982 47.2183 16.9991C47.2183 17.5 47.0193 17.9804 46.6651 18.3347C46.3109 18.6889 45.8305 18.8879 45.3295 18.8879ZM14.6367 39.5285C15.7662 39.2018 17.7834 38.8524 20.7148 38.7447L19.9877 50.3759C19.9425 51.0691 19.6297 51.7177 19.1154 52.1847C18.601 52.6518 17.9253 52.9006 17.2309 52.8788C16.5365 52.857 15.8778 52.5662 15.3937 52.0678C14.9097 51.5695 14.6383 50.9025 14.6367 50.2078V39.5285Z" fill="#147099"/>
<path d="M41.5533 31.1649C44.2107 31.1699 46.8204 30.4594 49.1085 29.108V37.7757L48.3209 50.3758C48.2757 51.069 47.9629 51.7176 47.4486 52.1846C46.9342 52.6517 46.2585 52.9005 45.5641 52.8787C44.8697 52.8569 44.211 52.5661 43.7269 52.0677C43.2429 51.5694 42.9715 50.9024 42.9699 50.2077V39.1922C42.9699 38.8165 42.8207 38.4562 42.555 38.1906C42.2893 37.9249 41.929 37.7757 41.5533 37.7757C41.1776 37.7757 40.8173 37.9249 40.5516 38.1906C40.286 38.4562 40.1367 38.8165 40.1367 39.1922V50.2077C40.1352 50.9024 39.8638 51.5694 39.3797 52.0677C38.8957 52.5661 38.2369 52.8569 37.5425 52.8787C36.8481 52.9005 36.1724 52.6517 35.6581 52.1846C35.1437 51.7176 34.8309 51.069 34.7858 50.3758L34.0813 39.1054C34.0387 38.6495 33.9896 38.1942 33.934 37.7398C30.6664 35.3637 14.9365 35.137 11.8049 37.7681V50.389C11.8133 51.0319 11.5733 51.6533 11.135 52.1237C10.6967 52.5941 10.0938 52.8773 9.45185 52.9143C8.80992 52.9514 8.17847 52.7393 7.68899 52.3224C7.19951 51.9054 6.88974 51.3157 6.82419 50.6761C6.46154 47.5615 5.79669 41.0111 5.66636 37.7757C5.3566 30.1676 8.61476 24.2746 13.0799 22.6653C17.2786 21.1524 23.2264 20.4876 27.6764 20.6028C28.9986 26.6224 34.7178 31.1649 41.5533 31.1649ZM3.0995 32.9876C1.14083 30.7966 0 27.8387 0 24.5541C0 16.8158 9.44394 13.8164 9.44394 9.44384C9.44394 6.56721 9.17006 5.13362 6.5522 3.48849C6.12791 3.22249 5.82666 2.79884 5.71473 2.31073C5.6028 1.82262 5.68935 1.31004 5.95535 0.885741C6.22134 0.461447 6.645 0.160198 7.13311 0.0482657C7.62122 -0.0636667 8.1338 0.0228866 8.5581 0.288884C12.8664 2.99174 13.2215 6.16301 13.2215 9.44384C13.2215 16.2246 3.77758 18.7952 3.77758 24.5541C3.77758 25.6591 3.98723 26.8811 4.44054 28.0465C3.82291 29.5613 3.36771 31.2197 3.0995 32.9876Z" fill="#147099"/>
</svg>
