<svg width="65" height="42" viewBox="0 0 65 42" fill="none" xmlns="http://www.w3.org/2000/svg">
<path d="M-6.10352e-05 30.0325C-6.10352e-05 30.5406 0.267635 31.0086 0.722054 31.236C2.27337 32.0516 4.05156 32.4796 5.87025 32.4796C12.1682 32.4796 17.2896 27.3448 17.2896 21.0334C17.2896 14.7355 12.1682 9.60069 5.87025 9.60069C4.05156 9.60069 2.27337 10.0287 0.722054 10.8443C0.267635 11.0851 -6.10352e-05 11.5395 -6.10352e-05 12.0478C0.0133209 12.5557 0.294395 13.0105 0.748829 13.2377C3.69051 14.6819 5.60288 17.7441 5.60288 21.0334C5.60288 24.3362 3.69051 27.4117 0.748829 28.8558C0.294407 29.0698 0.0133209 29.5378 -6.10352e-05 30.0325ZM24.6708 3.57012C24.9455 4.8436 25.8616 4.26995 27.7995 5.49571C31.8527 4.29273 36.5352 3.84008 39.4063 4.03824C37.6144 1.55098 34.6727 0 31.4101 0C29.1099 0 26.8769 0.802268 25.1252 2.23295C24.7374 2.55386 24.5503 3.07553 24.6708 3.57012ZM25.1252 39.7671C26.8769 41.2111 29.1099 42 31.4101 42C34.5924 42 37.5073 40.4624 39.326 38.0421C36.7223 38.2351 31.9528 37.825 27.7061 36.5578C25.8843 37.7199 24.9436 37.1786 24.6708 38.4433C24.5503 38.938 24.7374 39.4462 25.1252 39.7671ZM50.2237 8.90536C50.558 9.02583 50.8789 9.1595 51.1998 9.29319C56.709 11.5663 60.8808 15.4175 63.1806 18.9742C63.2743 19.0679 63.9295 20.2178 64.0232 20.3917C64.237 20.7929 64.237 21.2741 64.0232 21.6753C61.3088 26.703 56.5752 30.5273 51.2399 32.7738C50.9056 32.9208 50.5713 33.0545 50.2371 33.1748C47.4155 29.8319 45.7976 25.5531 45.7976 21.0335C45.7976 16.5273 47.4155 12.2483 50.2237 8.90536ZM51.7476 20.472H52.7974C53.5365 20.472 54.1346 19.8739 54.1346 19.1348C54.1346 18.3957 53.5365 17.7976 52.7974 17.7976H51.7476C51.0085 17.7976 50.4104 18.3957 50.4104 19.1348C50.4104 19.8739 51.0085 20.472 51.7476 20.472Z" fill="#147099"/>
<path d="M19.9634 21.0332C19.9634 23.7075 19.2145 26.2214 17.9175 28.3608C23.1725 32.827 30.4465 35.3943 38.2155 35.3943C41.4115 35.3943 44.5804 34.9529 47.5488 34.0839C44.7142 30.3933 43.1228 25.8336 43.1228 21.0332C43.1228 16.2327 44.7142 11.6731 47.5488 7.99593C44.5804 7.12675 41.4513 6.68555 38.2155 6.68555C30.4465 6.68555 23.1725 9.26617 17.9175 13.7324C19.2145 15.8584 19.9634 18.3589 19.9634 21.0332Z" fill="#147099"/>
</svg>
