<svg width="52" height="33" viewBox="0 0 52 33" fill="none" xmlns="http://www.w3.org/2000/svg">
<rect width="52" height="33" rx="5" fill="white"/>
<path d="M30.3272 24.663H21.6738V9.1123H30.3272V24.663Z" fill="#FF5F00"/>
<path d="M22.2227 16.8885C22.2214 15.391 22.5608 13.9127 23.2152 12.5658C23.8696 11.2188 24.8219 10.0384 26 9.11382C24.5411 7.96732 22.7892 7.25437 20.9443 7.05643C19.0994 6.8585 17.2361 7.18358 15.5672 7.99451C13.8983 8.80544 12.4912 10.0695 11.5068 11.6423C10.5223 13.215 10.0002 15.033 10 16.8885C10.0004 18.7437 10.5226 20.5614 11.507 22.134C12.4914 23.7065 13.8983 24.9704 15.5669 25.7813C17.2355 26.5922 19.0986 26.9173 20.9433 26.7196C22.7879 26.5219 24.5398 25.8093 25.9987 24.6632C24.821 23.7384 23.869 22.5578 23.2149 21.2109C22.5607 19.864 22.2214 18.3859 22.2227 16.8885Z" fill="#EB001B"/>
<path d="M42 16.8885C41.9998 18.744 41.4777 20.5619 40.4932 22.1347C39.5088 23.7075 38.1017 24.9715 36.4328 25.7825C34.7639 26.5934 32.9006 26.9185 31.0557 26.7205C29.2108 26.5226 27.4589 25.8097 26 24.6632C28.3 22.8525 29.7773 20.0432 29.7773 16.8885C29.7773 13.7338 28.3 10.9245 26 9.11382C27.4589 7.96732 29.2108 7.25437 31.0557 7.05643C32.9006 6.8585 34.7639 7.18358 36.4328 7.99451C38.1017 8.80544 39.5088 10.0695 40.4932 11.6423C41.4777 13.215 41.9998 15.033 42 16.8885Z" fill="#F79E1B"/>
</svg>
