<svg width="4" height="8" viewBox="0 0 4 8" fill="none" xmlns="http://www.w3.org/2000/svg">
<path d="M2.5704 4.00043L0.15469 1.02676C0.0555911 0.913605 0 0.760806 0 0.601573C0 0.442339 0.0555911 0.28954 0.15469 0.176389C0.203353 0.120524 0.261358 0.076159 0.32533 0.0458768C0.389301 0.0155947 0.457961 0 0.527314 0C0.596667 0 0.665327 0.0155947 0.729298 0.0458768C0.79327 0.076159 0.851275 0.120524 0.899938 0.176389L3.84555 3.57438C3.94452 3.68779 4 3.84069 4 4C4 4.15931 3.94452 4.31221 3.84555 4.42562L0.899938 7.82361C0.851275 7.87948 0.79327 7.92384 0.729298 7.95412C0.665327 7.98441 0.596667 8 0.527314 8C0.457961 8 0.389301 7.98441 0.32533 7.95412C0.261358 7.92384 0.203353 7.87948 0.15469 7.82361C0.0555911 7.71046 0 7.55766 0 7.39843C0 7.23919 0.0555911 7.0864 0.15469 6.97324L2.5704 4.00043Z" fill="white"/>
</svg>
