<svg width="25" height="24" viewBox="0 0 25 24" fill="none" xmlns="http://www.w3.org/2000/svg">
<path d="M21.7058 21.0002L17.3628 16.6572M17.3628 16.6572C18.1057 15.9144 18.695 15.0324 19.097 14.0618C19.499 13.0912 19.706 12.0508 19.706 11.0002C19.706 9.94963 19.499 8.90931 19.097 7.93866C18.695 6.96802 18.1057 6.08609 17.3628 5.3432C16.6198 4.60031 15.7379 4.01102 14.7673 3.60898C13.7967 3.20693 12.7564 3 11.7058 3C10.6552 3 9.61488 3.20693 8.64422 3.60898C7.67359 4.01102 6.79165 4.60031 6.04877 5.3432C4.54844 6.84354 3.70557 8.87843 3.70557 11.0002C3.70557 13.122 4.54844 15.1569 6.04877 16.6572C7.54909 18.1576 9.584 19.0004 11.7058 19.0004C13.8275 19.0004 15.8624 18.1576 17.3628 16.6572Z" stroke="#121212" stroke-width="2.2" stroke-linecap="round" stroke-linejoin="round"/>
</svg>
