<svg width="14" height="13" viewBox="0 0 14 13" fill="none" xmlns="http://www.w3.org/2000/svg">
<path d="M13.1945 5.8551C13.7394 5.45961 13.4596 4.59787 12.7863 4.59787H9.33943C9.04454 4.59787 8.78176 4.41173 8.68392 4.13354L7.52878 0.849074C7.31162 0.231608 6.43917 0.229426 6.21892 0.845799L5.04296 4.13681C4.94416 4.41331 4.68223 4.59787 4.38861 4.59787H0.960487C0.286628 4.59787 0.00723124 5.46076 0.553201 5.85573L3.26012 7.814C3.50979 7.99462 3.61068 8.3181 3.50796 8.60863L2.40728 11.7216C2.18312 12.3556 2.90041 12.9065 3.45515 12.5265L6.48572 10.4501C6.72244 10.2879 7.0345 10.2879 7.27121 10.4501L10.3018 12.5265C10.8565 12.9065 11.5738 12.3556 11.3497 11.7216L10.2487 8.60785C10.1461 8.31769 10.2466 7.99461 10.4957 7.81384L13.1945 5.8551Z" fill="#FCBD43"/>
</svg>
