<svg width="52" height="33" viewBox="0 0 52 33" fill="none" xmlns="http://www.w3.org/2000/svg">
<rect width="52" height="33" rx="5" fill="white"/>
<path d="M23.688 22.5446H20.7351L22.5806 11.2027H25.5338L23.688 22.5446ZM18.2509 11.2027L15.4358 19.0037L15.1027 17.3238L15.103 17.3245L14.1094 12.2239C14.1094 12.2239 13.9892 11.2027 12.7086 11.2027H8.05461L8 11.3947C8 11.3947 9.4232 11.6908 11.0888 12.6911L13.6543 22.5449H16.7309L21.4289 11.2027H18.2509ZM41.4769 22.5446H44.1883L41.8243 11.2024H39.4506C38.3544 11.2024 38.0874 12.0476 38.0874 12.0476L33.6834 22.5446H36.7616L37.3772 20.8599H41.131L41.4769 22.5446ZM38.2276 18.5326L39.7791 14.2881L40.652 18.5326H38.2276ZM33.9143 13.9301L34.3357 11.4945C34.3357 11.4945 33.0354 11 31.6799 11C30.2145 11 26.7346 11.6405 26.7346 14.7547C26.7346 17.6849 30.8188 17.7213 30.8188 19.2604C30.8188 20.7995 27.1554 20.5237 25.9464 19.5532L25.5074 22.0998C25.5074 22.0998 26.8259 22.7403 28.8404 22.7403C30.8555 22.7403 33.8955 21.6969 33.8955 18.8572C33.8955 15.9082 29.7746 15.6337 29.7746 14.3515C29.7749 13.0691 32.6507 13.2339 33.9143 13.9301Z" fill="#2566AF"/>
<path d="M15.103 17.3249L14.1094 12.2243C14.1094 12.2243 13.9892 11.2031 12.7086 11.2031H8.05461L8 11.3952C8 11.3952 10.2369 11.8587 12.3825 13.5957C14.434 15.2558 15.103 17.3249 15.103 17.3249Z" fill="#E6A540"/>
</svg>
