<svg width="144" height="24" viewBox="0 0 144 24" fill="none" xmlns="http://www.w3.org/2000/svg">
<g clip-path="url(#clip0_1_819)">
<path d="M24.5383 10.8383C25.6714 10.0159 25.0896 8.22408 23.6896 8.22408H16.615L14.2855 1.60024C13.8339 0.316321 12.0198 0.311783 11.5618 1.59343L9.19252 8.22408H2.14603C0.744848 8.22408 0.163895 10.0183 1.29915 10.8396L6.90792 14.8972L4.62409 21.3563C4.15797 22.6746 5.64947 23.8202 6.80296 23.0299L12.9276 18.8337L19.0523 23.0299C20.2058 23.8202 21.6973 22.6746 21.2312 21.3563L18.947 14.8963L24.5383 10.8383Z" fill="#FCBD43" stroke="#121212" stroke-width="1.5" stroke-linejoin="round"/>
<path d="M54.0617 10.8383C55.1948 10.0159 54.6131 8.22408 53.213 8.22408H46.1385L43.8089 1.60024C43.3573 0.316321 41.5432 0.311783 41.0852 1.59343L38.716 8.22408H31.6695C30.2683 8.22408 29.6873 10.0183 30.8226 10.8396L36.4314 14.8972L34.1475 21.3563C33.6814 22.6746 35.1729 23.8202 36.3264 23.0299L42.4511 18.8337L48.5757 23.0299C49.7292 23.8202 51.2207 22.6746 50.7546 21.3563L48.4705 14.8963L54.0617 10.8383Z" fill="#FCBD43" stroke="#121212" stroke-width="1.5" stroke-linejoin="round"/>
<path d="M83.5773 10.8383C84.7104 10.0159 84.1287 8.22408 82.7287 8.22408H75.6541L73.3245 1.60024C72.873 0.316318 71.0588 0.311786 70.6009 1.59343L68.2316 8.22408H61.1851C59.7839 8.22408 59.203 10.0183 60.3382 10.8396L65.947 14.8972L63.6631 21.3563C63.197 22.6746 64.6885 23.8202 65.842 23.0299L71.9667 18.8337L78.0913 23.0299C79.2448 23.8202 80.7363 22.6746 80.2702 21.3563L77.9861 14.8963L83.5773 10.8383ZM77.9724 14.8575C77.9724 14.8576 77.9724 14.8577 77.9725 14.8578L77.9724 14.8575Z" fill="#FCBD43" stroke="#121212" stroke-width="1.5" stroke-linejoin="round"/>
<path d="M113.101 10.8383C114.234 10.0159 113.652 8.22408 112.252 8.22408H105.178L102.848 1.60024C102.396 0.316318 100.582 0.311786 100.124 1.59343L97.755 8.22408H90.7085C89.3073 8.22408 88.7264 10.0183 89.8616 10.8396L95.4704 14.8972L93.1866 21.3563C92.7205 22.6746 94.212 23.8202 95.3655 23.0299L101.49 18.8337L107.615 23.0299C108.768 23.8202 110.26 22.6746 109.794 21.3563L107.51 14.8963L113.101 10.8383ZM107.496 14.8575C107.496 14.8576 107.496 14.8577 107.496 14.8578L107.496 14.8575Z" fill="#FCBD43" stroke="#121212" stroke-width="1.5" stroke-linejoin="round"/>
<path d="M141.496 10.8182C142.596 9.97992 142.003 8.22408 140.62 8.22408H133.936L131.755 1.71333C131.316 0.402034 129.463 0.397582 129.017 1.70675L126.799 8.22408H120.142C118.758 8.22408 118.166 9.98232 119.268 10.8195L124.626 14.8896L122.457 21.3291C122.009 22.6598 123.531 23.7831 124.671 22.9631L130.39 18.8485L136.11 22.9631C137.25 23.7831 138.771 22.6598 138.323 21.3291L136.154 14.8888L141.496 10.8182Z" fill="#FCBD43" stroke="#121212" stroke-width="1.5" stroke-linejoin="round"/>
</g>
<defs>
<clipPath id="clip0_1_819">
<rect width="144" height="24" fill="white"/>
</clipPath>
</defs>
</svg>
