<svg width="90" height="15" viewBox="0 0 90 15" fill="none" xmlns="http://www.w3.org/2000/svg">
<path d="M15.1945 6.8551C15.7394 6.45961 15.4596 5.59787 14.7863 5.59787H11.3394C11.0445 5.59787 10.7818 5.41173 10.6839 5.13354L9.52878 1.84907C9.31162 1.23161 8.43917 1.22943 8.21892 1.8458L7.04296 5.13681C6.94416 5.41331 6.68223 5.59787 6.38861 5.59787H2.96049C2.28663 5.59787 2.00723 6.46076 2.5532 6.85573L5.26012 8.814C5.50979 8.99462 5.61068 9.3181 5.50796 9.60863L4.40728 12.7216C4.18312 13.3556 4.90041 13.9065 5.45515 13.5265L8.48572 11.4501C8.72244 11.2879 9.0345 11.2879 9.27121 11.4501L12.3018 13.5265C12.8565 13.9065 13.5738 13.3556 13.3497 12.7216L12.2487 9.60785C12.1461 9.31769 12.2466 8.99461 12.4957 8.81384L15.1945 6.8551Z" fill="#FCBD43"/>
<path d="M33.6107 6.8551C34.1557 6.45961 33.8759 5.59787 33.2026 5.59787H29.7557C29.4608 5.59787 29.198 5.41173 29.1002 5.13354L27.945 1.84907C27.7279 1.23161 26.8554 1.22943 26.6352 1.8458L25.4592 5.13681C25.3604 5.41331 25.0985 5.59787 24.8049 5.59787H21.3767C20.7029 5.59787 20.4235 6.46076 20.9695 6.85573L23.6764 8.814C23.9261 8.99462 24.0269 9.3181 23.9242 9.60863L22.8235 12.7216C22.5994 13.3556 23.3167 13.9065 23.8714 13.5265L26.902 11.4501C27.1387 11.2879 27.4508 11.2879 27.6875 11.4501L30.718 13.5265C31.2728 13.9065 31.9901 13.3556 31.7659 12.7216L30.665 9.60785C30.5624 9.31769 30.6629 8.99461 30.9119 8.81384L33.6107 6.8551Z" fill="#FCBD43"/>
<path d="M52.0226 6.8551C52.5675 6.45961 52.2878 5.59787 51.6144 5.59787H48.1676C47.8727 5.59787 47.6099 5.41173 47.512 5.13354L46.3569 1.84907C46.1397 1.23161 45.2673 1.22943 45.047 1.8458L43.8711 5.13681C43.7723 5.41331 43.5104 5.59787 43.2167 5.59787H39.7886C39.1148 5.59787 38.8354 6.46076 39.3813 6.85573L42.0882 8.814C42.3379 8.99462 42.4388 9.3181 42.3361 9.60863L41.2354 12.7216C41.0112 13.3556 41.7285 13.9065 42.2833 13.5265L45.3138 11.4501C45.5506 11.2879 45.8626 11.2879 46.0993 11.4501L49.1299 13.5265C49.6847 13.9065 50.4019 13.3556 50.1778 12.7216L49.0768 9.60785C48.9742 9.31769 49.0747 8.99461 49.3238 8.81384L52.0226 6.8551Z" fill="#FCBD43"/>
<path d="M70.4386 6.8551C70.9835 6.45961 70.7038 5.59787 70.0305 5.59787H66.5836C66.2887 5.59787 66.0259 5.41173 65.9281 5.13354L64.7729 1.84907C64.5558 1.23161 63.6833 1.22943 63.4631 1.8458L62.2871 5.13681C62.1883 5.41331 61.9264 5.59787 61.6328 5.59787H58.2046C57.5308 5.59787 57.2514 6.46076 57.7973 6.85573L60.5043 8.814C60.7539 8.99462 60.8548 9.3181 60.7521 9.60863L59.6514 12.7216C59.4273 13.3556 60.1446 13.9065 60.6993 13.5265L63.7299 11.4501C63.9666 11.2879 64.2786 11.2879 64.5154 11.4501L67.5459 13.5265C68.1007 13.9065 68.818 13.3556 68.5938 12.7216L67.4928 9.60785C67.3902 9.31769 67.4907 8.99461 67.7398 8.81384L70.4386 6.8551Z" fill="#FCBD43"/>
<path d="M88.1767 6.84542C88.7057 6.44229 88.4206 5.59787 87.7555 5.59787H84.5238C84.2251 5.59787 83.9598 5.40695 83.8649 5.12369L82.8024 1.95154C82.5912 1.32091 81.7 1.31876 81.4857 1.94837L80.404 5.12686C80.3082 5.40849 80.0437 5.59787 79.7462 5.59787H76.5323C75.8667 5.59787 75.5819 6.44345 76.112 6.84607L78.7062 8.81666C78.9438 8.9971 79.0396 9.30904 78.9444 9.59175L77.9032 12.6837C77.6877 13.3237 78.4194 13.8639 78.9676 13.4695L81.743 11.4729C81.9854 11.2985 82.3121 11.2985 82.5546 11.4729L85.33 13.4695C85.8781 13.8639 86.6098 13.3237 86.3943 12.6837L85.3528 9.59097C85.2578 9.30864 85.3532 8.99711 85.5902 8.81654L88.1767 6.84542Z" fill="#FCBD43"/>
</svg>
