<svg width="61" height="56" viewBox="0 0 61 56" fill="none" xmlns="http://www.w3.org/2000/svg">
<path d="M60.5395 46.6414L56.9173 30.7707C60.215 29.6087 59.9009 24.4895 56.4462 23.7776C57.0309 22.953 57.4079 21.9993 57.5452 20.9978C57.6825 19.9963 57.5761 18.9764 57.2349 18.0248C56.8937 17.0732 56.3279 16.218 55.5855 15.5318C54.8431 14.8457 53.9461 14.3489 52.9706 14.0836C55.2737 8.38856 48.3643 3.16466 43.4859 6.87059C42.4174 6.07377 41.1232 5.63747 39.7904 5.62481C39.6807 4.58031 39.3108 3.58001 38.7145 2.7154C38.1183 1.85079 37.3148 1.14949 36.3775 0.675642C35.4402 0.201794 34.3991 -0.0294706 33.3494 0.00300392C32.2996 0.0354784 31.2748 0.330655 30.3686 0.861532C29.4624 0.330655 28.4375 0.0354784 27.3878 0.00300392C26.338 -0.0294706 25.2969 0.201794 24.3596 0.675642C23.4223 1.14949 22.6188 1.85079 22.0226 2.7154C21.4264 3.58001 21.0564 4.58031 20.9467 5.62481C19.627 5.63802 18.345 6.06658 17.2826 6.84966C12.3728 3.14372 5.4634 8.36763 7.76652 14.0836C6.78768 14.3476 5.8873 14.8447 5.14229 15.5323C4.39728 16.2199 3.82978 17.0776 3.48827 18.0322C3.14676 18.9868 3.04139 20.0098 3.18116 21.014C3.32093 22.0181 3.70168 22.9735 4.2909 23.7986C0.836212 24.4895 0.522149 29.6401 3.81981 30.7917L0.197618 46.6518C-0.0624356 47.7944 -0.0658696 48.9805 0.187563 50.1245C0.440996 51.2686 0.944988 52.3422 1.66324 53.2681C2.1796 53.9434 2.84291 54.4923 3.6029 54.8732C4.36288 55.2541 5.19961 55.457 6.04965 55.4665H54.6875C58.9273 55.477 61.5131 50.5986 60.5395 46.6414ZM41.8109 11.9898C42.0886 11.9898 42.3548 12.1001 42.5512 12.2964C42.7475 12.4928 42.8578 12.759 42.8578 13.0367C42.8605 13.6457 43.1044 14.2288 43.536 14.6585C43.9677 15.0881 44.5519 15.3294 45.1609 15.3293C45.4385 15.3293 45.7048 15.4396 45.9012 15.636C46.0975 15.8323 46.2078 16.0986 46.2078 16.3762C46.2078 16.6539 46.0975 16.9201 45.9012 17.1165C45.7048 17.3128 45.4385 17.4231 45.1609 17.4231C43.9966 17.4231 42.8798 16.9613 42.0555 16.139C41.2313 15.3167 40.7668 14.201 40.764 13.0367C40.764 12.759 40.8743 12.4928 41.0706 12.2964C41.267 12.1001 41.5333 11.9898 41.8109 11.9898ZM33.3417 15.4026C34.7299 15.4026 36.0613 15.9541 37.0429 16.9357C38.0246 17.9174 38.5761 19.2488 38.5761 20.637C38.5761 20.9146 38.4658 21.1809 38.2694 21.3773C38.0731 21.5736 37.8068 21.6839 37.5292 21.6839C37.2515 21.6839 36.9853 21.5736 36.7889 21.3773C36.5926 21.1809 36.4823 20.9146 36.4823 20.637C36.4823 19.8041 36.1514 19.0052 35.5624 18.4162C34.9735 17.8273 34.1746 17.4964 33.3417 17.4964C33.064 17.4964 32.7978 17.3861 32.6014 17.1898C32.4051 16.9934 32.2948 16.7271 32.2948 16.4495C32.2948 16.1719 32.4051 15.9056 32.6014 15.7092C32.7978 15.5129 33.064 15.4026 33.3417 15.4026ZM25.9403 9.04809C26.2439 8.00122 27.1442 8.30481 28.034 8.34669C28.9766 8.34811 29.8905 8.02252 30.6198 7.42544C30.8336 7.24774 31.1092 7.16225 31.386 7.18778C31.6629 7.2133 31.9182 7.34774 32.0959 7.56153C32.2736 7.77532 32.3591 8.05094 32.3336 8.32776C32.308 8.60459 32.1736 8.85993 31.9598 9.03763C30.9339 10.1892 25.6681 11.5815 25.9403 9.04809ZM25.4482 14.0836C25.7259 14.0836 25.9922 14.1939 26.1885 14.3902C26.3848 14.5865 26.4951 14.8528 26.4951 15.1304C26.4951 15.4081 26.3848 15.6744 26.1885 15.8707C25.9922 16.067 25.7259 16.1773 25.4482 16.1773C24.7282 16.1773 24.0374 16.4626 23.5273 16.9708C23.0171 17.479 22.7291 18.1686 22.7264 18.8887C22.7264 19.1664 22.6161 19.4326 22.4197 19.629C22.2234 19.8253 21.9571 19.9356 21.6795 19.9356C21.4018 19.9356 21.1356 19.8253 20.9392 19.629C20.7429 19.4326 20.6326 19.1664 20.6326 18.8887C20.6354 17.6133 21.144 16.3912 22.0468 15.4903C22.9496 14.5895 24.1729 14.0836 25.4482 14.0836ZM11.5771 20.9406C12.4444 20.9378 13.2751 20.5914 13.8874 19.9772C14.4996 19.363 14.8434 18.5311 14.8434 17.6639C14.8434 17.3862 14.9537 17.1199 15.15 16.9236C15.3463 16.7273 15.6126 16.617 15.8903 16.617C16.1679 16.617 16.4342 16.7273 16.6305 16.9236C16.8269 17.1199 16.9371 17.3862 16.9371 17.6639C16.9372 19.0864 16.3728 20.4508 15.3679 21.4577C14.363 22.4645 12.9997 23.0316 11.5771 23.0343C11.2995 23.0343 11.0332 22.924 10.8369 22.7277C10.6406 22.5314 10.5303 22.2651 10.5303 21.9875C10.5303 21.7098 10.6406 21.4435 10.8369 21.2472C11.0332 21.0509 11.2995 20.9406 11.5771 20.9406ZM3.59996 27.2218C3.59996 26.8387 3.75217 26.4712 4.0231 26.2003C4.29403 25.9294 4.66149 25.7772 5.04465 25.7772H55.6925C55.9031 25.781 56.1105 25.8295 56.3009 25.9196C56.4914 26.0096 56.6605 26.1391 56.7971 26.2995C56.9337 26.4598 57.0346 26.6474 57.0933 26.8497C57.1519 27.0521 57.1669 27.2645 57.1371 27.4731C57.1372 27.665 57.0988 27.855 57.0241 28.0318C56.9494 28.2086 56.84 28.3686 56.7024 28.5023C56.5647 28.6361 56.4016 28.7408 56.2228 28.8104C56.0439 28.88 55.8529 28.9129 55.6611 28.9073H5.07606C4.86327 28.9095 4.65252 28.8656 4.45828 28.7787C4.26403 28.6918 4.09087 28.5639 3.95067 28.4038C3.81047 28.2437 3.70654 28.0552 3.64601 27.8512C3.58547 27.6472 3.56977 27.4325 3.59996 27.2218ZM35.9379 37.3033C34.5142 42.0247 30.0754 39.7948 31.3421 35.4922C31.8132 33.7543 33.1114 32.3515 34.755 33.032C36.1159 33.702 36.3776 35.6806 35.9379 37.3033ZM28.2748 39.7634C24.9248 41.0929 23.3231 34.3301 26.024 33.0425C29.3217 31.7129 30.9548 38.4757 28.2748 39.7634ZM21.0723 42.7156C18.2143 39.9309 20.8211 35.2409 24.2129 38.2978C27.0186 41.0929 24.4014 45.762 21.0304 42.7156H21.0723ZM30.4314 52.1375C27.6676 52.2526 23.03 51.1848 23.1975 48.62C23.5011 39.3028 37.3617 39.3551 37.6548 48.62C37.6129 51.2162 33.7186 52.1479 30.3686 52.1479L30.4314 52.1375ZM39.7486 42.7156C36.3881 45.7725 33.7604 41.1034 36.6079 38.3083C39.9475 35.2304 42.5542 39.91 39.7067 42.6947L39.7486 42.7156Z" fill="#147099"/>
</svg>
