<svg width="57" height="76" viewBox="0 0 57 76" fill="none" xmlns="http://www.w3.org/2000/svg">
<path d="M43.2849 36.2609C43.0832 36.2612 42.886 36.2019 42.7181 36.0905C42.5503 35.9792 42.4194 35.8207 42.342 35.6353C42.2646 35.4498 42.2442 35.2457 42.2833 35.0487C42.3225 34.8517 42.4195 34.6707 42.562 34.5286C42.7045 34.3865 42.8862 34.2896 43.084 34.2504C43.2818 34.2111 43.4869 34.2311 43.6732 34.3079C43.8596 34.3846 44.0189 34.5147 44.131 34.6817C44.2431 34.8487 44.3029 35.045 44.3029 35.2458C44.3025 35.5146 44.1952 35.7724 44.0044 35.9626C43.8136 36.1528 43.5549 36.2601 43.2849 36.2609ZM54.048 0L44.6079 5.23753C44.2731 5.42216 43.8801 5.47272 43.5092 5.37892C43.4464 5.36553 36.9018 3.77448 31.8851 7.08309C28.8385 9.0894 26.9131 12.529 26.1627 17.3066C25.049 24.3704 24.7515 26.6148 24.608 27.6939C24.4585 28.8548 24.4451 28.9054 23.9204 31.5294C22.7454 37.4262 23.8516 39.8642 24.614 40.7855C24.9122 41.1453 25.2909 41.4306 25.7197 41.6185C26.1486 41.8064 26.6156 41.8917 27.0835 41.8675C30.0882 41.8675 32.7865 41.2632 32.7865 33.9688C32.7865 25.8885 32.6175 17.1935 32.616 17.1057C32.6084 16.7112 32.7585 16.3298 33.0332 16.0454C33.3079 15.761 33.6848 15.5969 34.081 15.5891H34.1109C34.5023 15.589 34.878 15.7417 35.1575 16.0144C35.437 16.2871 35.598 16.6581 35.6058 17.0476C35.6058 17.1265 35.7418 24.0638 35.7702 31.3136L40.7272 32.732C41.8558 25.1309 46.9115 20.9308 50.7324 17.7561C52.3449 16.5803 53.7718 15.1711 54.9658 13.5753C57.9571 8.65182 57.6491 4.08852 54.0435 0H54.048ZM51.4365 70.7729C51.1811 70.7463 50.9369 70.6547 50.7275 70.5069C50.518 70.3591 50.3503 70.1601 50.2406 69.929C49.8489 69.1044 40.6734 49.5831 40.4985 36.24C40.4985 36.0778 40.5104 35.9275 40.5104 35.7667L35.7657 34.4093C35.6596 41.613 32.9733 44.8442 27.0835 44.8442C26.8757 44.8442 26.6859 44.8025 26.4856 44.7847C26.1295 46.4195 25.4917 47.9805 24.6006 49.3986C24.2807 49.8451 18.5404 57.7334 16.0036 60.4124C14.56 62.0105 13.5784 63.9682 13.1633 66.0774C12.7482 68.1866 12.9151 70.3684 13.6462 72.3907C13.7359 72.5961 13.8375 72.8045 13.9541 73.0158H8.91639C7.77243 73.0658 6.64001 72.7703 5.66767 72.1682C4.69532 71.566 3.92844 70.6854 3.4676 69.6417C2.34943 67.0267 3.25084 63.8371 5.88031 61.1164C6.15526 60.832 6.30548 60.4505 6.29791 60.0558C6.29034 59.6612 6.1256 59.2856 5.83995 59.0119C5.5543 58.7381 5.17113 58.5886 4.77472 58.5961C4.37832 58.6036 4.00116 58.7677 3.72621 59.0521C0.23868 62.6658 -0.886958 67.0594 0.715542 70.8101C1.40869 72.3891 2.55948 73.7261 4.02051 74.6499C5.48153 75.5737 7.18628 76.0423 8.91639 75.9955H39.9813C40.2308 74.5927 39.9473 73.1476 39.186 71.9412C38.9105 71.6519 38.5732 71.428 38.199 71.286C37.8249 71.1441 37.4234 71.0877 37.0244 71.1212H29.6532C29.3192 71.1203 28.9951 71.008 28.7326 70.8023C28.4701 70.5966 28.2844 70.3093 28.2051 69.9862C28.1258 69.6631 28.1574 69.3229 28.295 69.0199C28.4326 68.7168 28.6681 68.4683 28.9641 68.3141C29.9203 67.8166 30.7583 67.1208 31.4215 66.2735C32.0847 65.4262 32.5578 64.4473 32.8089 63.4025C33.1957 61.9753 33.0504 60.4569 32.4 59.128C31.7496 57.7992 30.6379 56.7497 29.2705 56.1736C29.0883 56.1009 28.9222 55.9931 28.7817 55.8565C28.6412 55.7199 28.5292 55.5571 28.4519 55.3773C28.3747 55.1976 28.3338 55.0045 28.3315 54.809C28.3292 54.6135 28.3656 54.4195 28.4386 54.238C28.5117 54.0565 28.6199 53.8911 28.7571 53.7513C28.8943 53.6114 29.0579 53.4999 29.2384 53.423C29.4189 53.3461 29.6129 53.3053 29.8092 53.303C30.0056 53.3008 30.2004 53.337 30.3827 53.4097C32.3879 54.2381 34.0305 55.7516 35.015 57.678C35.9996 59.6045 36.2616 61.8175 35.7538 63.919C35.4153 65.4628 34.7276 66.9095 33.7432 68.1489H37.0319C37.8633 68.1131 38.6923 68.2616 39.459 68.5836C40.2258 68.9056 40.9112 69.3931 41.4657 70.0108C42.7349 71.7344 43.2768 73.8839 42.9755 76H54.6594C54.9188 74.6844 54.7222 73.3202 54.1018 72.1303C53.7901 71.7175 53.3881 71.3808 52.9263 71.1457C52.4645 70.9105 51.955 70.783 51.4365 70.7729Z" fill="#147099"/>
</svg>
