<svg width="19" height="15" viewBox="0 0 19 15" fill="none" xmlns="http://www.w3.org/2000/svg">
<path d="M0 1.07143C0 0.787268 0.11121 0.514746 0.309165 0.313814C0.50712 0.112883 0.775605 0 1.05556 0H17.9444C18.2244 0 18.4929 0.112883 18.6908 0.313814C18.8888 0.514746 19 0.787268 19 1.07143C19 1.35559 18.8888 1.62811 18.6908 1.82904C18.4929 2.02997 18.2244 2.14286 17.9444 2.14286H1.05556C0.775605 2.14286 0.50712 2.02997 0.309165 1.82904C0.11121 1.62811 0 1.35559 0 1.07143ZM0 7.5C0 7.21584 0.11121 6.94332 0.309165 6.74239C0.50712 6.54145 0.775605 6.42857 1.05556 6.42857H17.9444C18.2244 6.42857 18.4929 6.54145 18.6908 6.74239C18.8888 6.94332 19 7.21584 19 7.5C19 7.78416 18.8888 8.05668 18.6908 8.25761C18.4929 8.45855 18.2244 8.57143 17.9444 8.57143H1.05556C0.775605 8.57143 0.50712 8.45855 0.309165 8.25761C0.11121 8.05668 0 7.78416 0 7.5ZM1.05556 12.8571C0.775605 12.8571 0.50712 12.97 0.309165 13.171C0.11121 13.3719 0 13.6444 0 13.9286C0 14.2127 0.11121 14.4853 0.309165 14.6862C0.50712 14.8871 0.775605 15 1.05556 15H17.9444C18.2244 15 18.4929 14.8871 18.6908 14.6862C18.8888 14.4853 19 14.2127 19 13.9286C19 13.6444 18.8888 13.3719 18.6908 13.171C18.4929 12.97 18.2244 12.8571 17.9444 12.8571H1.05556Z" fill="black"/>
</svg>
