<svg width="148" height="47" viewBox="0 0 148 47" fill="none" xmlns="http://www.w3.org/2000/svg">
<path d="M11.381 0.551758H16.6273L28.0512 30.4171H25.3027C23.5937 27.4712 21.1029 25.0603 18.1084 23.4537C15.4857 22.0095 12.4812 21.5845 8.37726 21.8817L5.24624 30.2886H0L11.381 0.551758ZM18.4044 18.6931L14.0045 6.9676L10.2838 16.8662C14.2605 16.8239 16.4186 17.6307 18.4073 18.6931" fill="#1B1815"/>
<path d="M30.7266 0.552734H35.5925V25.7042H51.713V30.2888H30.7266V0.552734Z" fill="#1B1815"/>
<path d="M54.9194 0.552734H65.6664C71.674 0.552734 75.9051 3.95159 75.9051 8.75233C75.91 9.89866 75.6348 11.0287 75.1038 12.0435C74.5728 13.0583 73.8021 13.9268 72.8592 14.5731C74.1108 15.2224 75.1554 16.212 75.8736 17.429C76.5918 18.646 76.9548 20.0413 76.9209 21.4555C76.9209 26.6388 72.6898 30.2925 66.6815 30.2925H54.918L54.9194 0.552734ZM66.936 12.6192C69.3479 12.6192 71.0399 11.0895 71.0399 8.88011C71.0399 6.67067 69.1785 5.141 66.5128 5.141H59.7861V12.6192H66.936ZM67.5279 25.705C70.1913 25.705 72.055 23.9636 72.055 21.4562C72.055 18.9489 70.1935 17.2075 67.5279 17.2075H59.7854V25.7042L67.5279 25.705Z" fill="#1B1815"/>
<path d="M85.5918 0.552734H80.7266V30.2925H85.5918V0.552734Z" fill="#1B1815"/>
<path d="M89.1895 15.4646C89.1895 6.62758 95.6194 0 104.083 0C112.547 0 118.976 6.62758 118.976 15.4646C118.976 24.3016 112.546 30.9292 104.083 30.9292C95.6209 30.9292 89.1895 24.3016 89.1895 15.4646ZM104.083 26.3409C109.753 26.3409 114.153 21.6672 114.153 15.4646C114.153 9.26197 109.75 4.58827 104.083 4.58827C98.4161 4.58827 94.0132 9.26197 94.0132 15.4646C94.0132 21.6672 98.4131 26.3409 104.083 26.3409Z" fill="#1B1815"/>
<path d="M122.572 0.552734H128.326L143.135 22.7727V0.552734H148.001V30.2888H142.246L127.437 8.07553V30.2888H122.572V0.552734Z" fill="#1B1815"/>
<path d="M41.2194 44.9845V46.8663H39.9824V40.1801H42.7983C43.1161 40.1744 43.4318 40.2325 43.727 40.3507C44.0223 40.4689 44.2911 40.645 44.5178 40.8687C44.7445 41.0924 44.9246 41.3592 45.0475 41.6536C45.1704 41.9479 45.2337 42.2639 45.2337 42.583C45.2337 42.9022 45.1704 43.2182 45.0475 43.5125C44.9246 43.8068 44.7445 44.0736 44.5178 44.2973C44.2911 44.521 44.0223 44.6971 43.727 44.8154C43.4318 44.9336 43.1161 44.9916 42.7983 44.986L41.2194 44.9845ZM42.637 43.9147C42.8113 43.9147 42.9839 43.8802 43.1449 43.8133C43.3059 43.7463 43.4523 43.6481 43.5755 43.5243C43.6988 43.4006 43.7965 43.2537 43.8632 43.092C43.9299 42.9303 43.9643 42.7569 43.9643 42.5819C43.9643 42.4069 43.9299 42.2336 43.8632 42.0719C43.7965 41.9102 43.6988 41.7633 43.5755 41.6395C43.4523 41.5157 43.3059 41.4176 43.1449 41.3506C42.9839 41.2836 42.8113 41.2491 42.637 41.2491H41.2194V43.9147H42.637Z" fill="#1B1815"/>
<path d="M48.0879 40.1787H52.541V41.2678H49.3249V42.9305H52.4552V44.0099H49.3249V45.7773H52.5802V46.8665H48.0894L48.0879 40.1787Z" fill="#1B1815"/>
<path d="M60.4482 41.2582H58.4403V46.8672H57.2032V41.2582H55.1953V40.1787H60.4482V41.2582Z" fill="#1B1815"/>
<path d="M67.5723 46.8664V40.1802H71.8915V41.2693H68.8085V43.0464H71.8064V44.1258H68.8085V46.8679L67.5723 46.8664Z" fill="#1B1815"/>
<path d="M78.1048 40.0449C78.7865 40.0598 79.4487 40.2764 80.0083 40.6676C80.568 41.0588 81.0002 41.6072 81.2508 42.244C81.5014 42.8808 81.5593 43.5777 81.4172 44.2474C81.2751 44.917 80.9393 45.5297 80.4519 46.0086C79.9645 46.4875 79.3472 46.8112 78.6773 46.9393C78.0075 47.0674 77.3149 46.9942 76.6863 46.7287C76.0578 46.4632 75.5212 46.0174 75.1439 45.447C74.7666 44.8767 74.5654 44.2072 74.5653 43.5225C74.5547 43.0564 74.6396 42.593 74.8148 42.1612C74.9899 41.7294 75.2515 41.3383 75.5834 41.0123C75.9152 40.6862 76.3103 40.4321 76.744 40.2657C77.1777 40.0992 77.6409 40.0241 78.1048 40.0449ZM75.8024 43.5225C75.8208 43.9756 75.9714 44.4133 76.2356 44.7812C76.4997 45.1491 76.8657 45.4308 77.2881 45.5915C77.7104 45.7522 78.1705 45.7847 78.6111 45.6849C79.0517 45.5852 79.4533 45.3576 79.7661 45.0304C80.0789 44.7033 80.2891 44.2911 80.3705 43.845C80.4519 43.3989 80.4009 42.9386 80.2238 42.5214C80.0468 42.1041 79.7516 41.7484 79.3748 41.4983C78.9981 41.2482 78.5564 41.1148 78.1048 41.1147C77.7932 41.1109 77.4842 41.1713 77.1968 41.2922C76.9094 41.4132 76.6498 41.592 76.434 41.8177C76.2182 42.0433 76.0508 42.3111 75.9422 42.6043C75.8335 42.8975 75.7859 43.2101 75.8024 43.5225Z" fill="#1B1815"/>
<path d="M87.9231 40.0449C88.6048 40.0598 89.267 40.2764 89.8266 40.6676C90.3863 41.0588 90.8185 41.6071 91.0691 42.2439C91.3198 42.8807 91.3776 43.5776 91.2355 44.2473C91.0934 44.917 90.7576 45.5297 90.2702 46.0085C89.7828 46.4874 89.1655 46.8112 88.4957 46.9393C87.8258 47.0674 87.1332 46.9941 86.5047 46.7287C85.8761 46.4632 85.3396 46.0174 84.9623 45.447C84.585 44.8767 84.3837 44.2072 84.3837 43.5225C84.3732 43.0564 84.4582 42.5931 84.6333 42.1613C84.8085 41.7296 85.0701 41.3385 85.4019 41.0125C85.7338 40.6864 86.1288 40.4323 86.5625 40.2658C86.9962 40.0994 87.4593 40.0242 87.9231 40.0449ZM85.6207 43.5225C85.639 43.9758 85.7896 44.4138 86.0538 44.7819C86.3179 45.15 86.6841 45.432 87.1066 45.5928C87.5291 45.7536 87.9894 45.7862 88.4302 45.6864C88.871 45.5866 89.2728 45.3589 89.5858 45.0317C89.8987 44.7044 90.109 44.2919 90.1904 43.8456C90.2717 43.3993 90.2207 42.9388 90.0435 42.5214C89.8663 42.104 89.5709 41.7481 89.1939 41.498C88.8169 41.2479 88.3749 41.1146 87.9231 41.1147C87.6116 41.111 87.3026 41.1715 87.0153 41.2924C86.728 41.4134 86.4684 41.5922 86.2526 41.8179C86.0368 42.0435 85.8694 42.3112 85.7607 42.6044C85.6521 42.8976 85.6044 43.21 85.6207 43.5225Z" fill="#1B1815"/>
<path d="M94.5352 46.8664V40.1802H96.495C99.1118 40.1802 100.49 41.7091 100.49 43.5233C100.49 45.3375 99.1104 46.8664 96.495 46.8664H94.5352ZM95.7722 45.816H96.3907C98.2551 45.816 99.2546 44.946 99.2546 43.5226C99.2546 42.0991 98.2551 41.2299 96.3907 41.2299H95.7722V45.816Z" fill="#1B1815"/>
<path d="M104.419 44.9082C104.444 45.2188 104.59 45.507 104.826 45.7094C105.061 45.9118 105.368 46.0119 105.677 45.9877C106.372 45.9877 106.809 45.6162 106.809 45.013C106.809 44.5063 106.486 44.201 105.934 44.0472L105.078 43.808C104.05 43.5212 103.384 43.0153 103.384 41.993C103.389 41.7151 103.451 41.4413 103.568 41.1891C103.684 40.9368 103.851 40.7117 104.059 40.5282C104.267 40.3447 104.51 40.2068 104.774 40.1233C105.038 40.0399 105.317 40.0127 105.592 40.0436C105.863 40.0275 106.135 40.0662 106.392 40.1576C106.648 40.249 106.883 40.3911 107.084 40.5756C107.285 40.76 107.446 40.983 107.559 41.2313C107.672 41.4796 107.735 41.7483 107.743 42.0212H106.611C106.608 41.8895 106.58 41.7595 106.526 41.6391C106.473 41.5187 106.396 41.4103 106.3 41.3202C106.204 41.2301 106.092 41.1603 105.968 41.1148C105.845 41.0694 105.714 41.0492 105.583 41.0555C104.965 41.0555 104.603 41.3801 104.603 41.8868C104.603 42.3934 104.973 42.6037 105.516 42.7567L106.344 42.9952C107.334 43.282 108.019 43.8362 108.019 44.9157C108.004 45.2109 107.929 45.5 107.801 45.7658C107.672 46.0316 107.491 46.2686 107.269 46.4628C107.047 46.6569 106.788 46.8041 106.509 46.8957C106.229 46.9873 105.933 47.0214 105.64 46.9958C105.345 47.0188 105.049 46.9826 104.768 46.8896C104.488 46.7965 104.228 46.6483 104.005 46.4536C103.782 46.259 103.6 46.0217 103.469 45.7556C103.338 45.4896 103.261 45.2 103.242 44.9038L104.419 44.9082Z" fill="#1B1815"/>
</svg>
