<svg width="11" height="6" viewBox="0 0 11 6" fill="none" xmlns="http://www.w3.org/2000/svg">
<path d="M9.58821 0.232035C9.74379 0.0833867 9.95389 0 10.1728 0C10.3918 0 10.6019 0.0833867 10.7575 0.232035C10.8343 0.305029 10.8953 0.392037 10.9369 0.487995C10.9786 0.583952 11 0.686942 11 0.790971C11 0.895001 10.9786 0.99799 10.9369 1.09395C10.8953 1.18991 10.8343 1.27691 10.7575 1.34991L6.08523 5.76833C5.92929 5.91677 5.71905 6 5.5 6C5.28095 6 5.07071 5.91677 4.91477 5.76833L0.242534 1.34991C0.16572 1.27691 0.104719 1.18991 0.0630806 1.09395C0.0214427 0.99799 0 0.895001 0 0.790971C0 0.686942 0.0214427 0.583952 0.0630806 0.487995C0.104719 0.392037 0.16572 0.305029 0.242534 0.232035C0.398117 0.0833867 0.608216 0 0.827162 0C1.04611 0 1.25621 0.0833867 1.41179 0.232035L5.50179 3.8556L9.58821 0.232035Z" fill="black"/>
</svg>
