<svg width="4" height="8" viewBox="0 0 4 8" fill="none" xmlns="http://www.w3.org/2000/svg">
<path d="M1.4296 3.99957L3.84531 6.97324C3.94441 7.0864 4 7.23919 4 7.39843C4 7.55766 3.94441 7.71046 3.84531 7.82361C3.79665 7.87948 3.73864 7.92384 3.67467 7.95412C3.6107 7.98441 3.54204 8 3.47269 8C3.40333 8 3.33467 7.98441 3.2707 7.95412C3.20673 7.92384 3.14872 7.87948 3.10006 7.82361L0.154446 4.42562C0.0554844 4.31221 3.79492e-07 4.15931 3.65565e-07 4C3.51637e-07 3.84069 0.0554844 3.68779 0.154446 3.57438L3.10006 0.176388C3.14872 0.120523 3.20673 0.0761595 3.2707 0.0458775C3.33467 0.015595 3.40333 5.21623e-08 3.47269 4.60993e-08C3.54204 4.00362e-08 3.6107 0.015595 3.67467 0.0458775C3.73864 0.0761595 3.79665 0.120523 3.84531 0.176388C3.94441 0.289539 4 0.442338 4 0.601572C4 0.760806 3.94441 0.913605 3.84531 1.02676L1.4296 3.99957Z" fill="white"/>
</svg>
